#define connected2_width 8
#define connected2_height 11
static unsigned char connected2_bits[] = {
   0x10, 0x20, 0x48, 0x90, 0xa4, 0xa9, 0xa4, 0x90, 0x48, 0x20, 0x10 };
