#define disconnected2_width 8
#define disconnected2_height 11
static unsigned char disconnected2_bits[] = {
   0x00, 0x00, 0x00, 0x00, 0x00, 0x88, 0x50, 0x22, 0x50, 0x88, 0x00 };
