#define waterdrop_width 23
#define waterdrop_height 23
static unsigned char waterdrop_bits[] = {
   0x00, 0x00, 0x00, 0x00, 0x00, 0x00, 0x00, 0x08, 0x00, 0x00, 0x1c, 0x00,
   0x00, 0x3e, 0x00, 0x00, 0x7f, 0x00, 0x00, 0x7f, 0x00, 0x80, 0xff, 0x00,
   0x80, 0xff, 0x00, 0xc0, 0xff, 0x01, 0xc0, 0xff, 0x01, 0xc0, 0xff, 0x01,
   0xe0, 0xff, 0x03, 0xe0, 0xff, 0x03, 0xe0, 0xff, 0x03, 0xe0, 0xff, 0x03,
   0xc0, 0xff, 0x01, 0xc0, 0xff, 0x01, 0x80, 0xff, 0x00, 0x00, 0x7f, 0x00,
   0x00, 0x3e, 0x00, 0x00, 0x00, 0x00, 0x00, 0x00, 0x00 };
